<svg xmlns="http://www.w3.org/2000/svg" viewBox="0 0 238.02 92.52"><defs><style>.cls-1{fill:#00aae9;}</style></defs><g id="Layer_2" data-name="Layer 2"><g id="Layer_1-2" data-name="Layer 1"><path d="M91.9,74.22H83.85l-6.09-17-2.41-6.75V45.85h7.58V29.64H73.74V66.08a34.78,34.78,0,0,1-3,3.57c-1.44,1.54-2.91,3.06-4.39,4.57-4.62,4.73-9.31,9.4-13.54,14.49C49,93.31,45,93.06,39.59,91.5c1.09-1.31,1.87-2.34,2.75-3.27q6.66-7,13.35-14h2.78L58,71.79q2.78-2.9,5.53-5.8c.9-.95,1.74-1.91,2.5-2.88v-40H86q4.65,0,4.65,4.71V46.37c0,2.16-.73,3.56-2.21,4.19a16.22,16.22,0,0,1-5,.49Z"/><path d="M58.47,74.22H55.69L58,71.79Z"/><path d="M24,50.93V69.54a6,6,0,0,1-.38,2.27c-.64,1.6-2.09,2.41-4.37,2.41H4.65Q0,74.22,0,69.54V57.76A.78.78,0,0,1,.76,57H6.82l.86.9v9a.78.78,0,0,0,.76.8h7.12a.78.78,0,0,0,.76-.8V27.59a.81.81,0,0,1,.14-.46,36.33,36.33,0,0,1,3.13-4.06l.43-.48C25.85,16.27,32.19,10.43,37.68,3.8,41.3-.58,45.13-.45,49.9.63a.82.82,0,0,1,.41,1.31c-.67.81-1.21,1.48-1.8,2.09q-11,11.56-22,23.08a34.69,34.69,0,0,0-2.34,2.74.82.82,0,0,0-.17.5V50.93Z"/><path d="M121.34,69.54q0,4.68-4.68,4.68H101.13q-4.65,0-4.65-4.68V57.35h7.72V67.78h9.43v-10L98.16,43.24a5.41,5.41,0,0,1-1.68-4.09V27.78q0-4.71,4.65-4.71h15.53q4.68,0,4.68,4.64V39.15h-7.71V29.51H104.2v9.25L119.66,53.2a5.42,5.42,0,0,1,1.68,4.15Z"/><path d="M149,70.13q0,4.09-4.18,4.09H131.33c-2.84,0-4.25-1.36-4.25-4.09V45.3c0-2.73,1.41-4.09,4.25-4.09h13.52q4.18,0,4.18,4.09ZM141.65,68V47.45h-7.16V68Z"/><path d="M163.57,29.57V41.21h4.82v6.37h-4.82V74.22h-7.48V47.58h-3.43V41.21h3.43v-14q0-4.1,4.19-4.09h8.38a5.05,5.05,0,0,0-.09,6.5Z"/><path class="cls-1" d="M184.39,67.85v6.37H176q-4.19,0-4.19-4.09V21.94c.94,1.06,2.31,3.23,3.85,3.23s2.74-2.1,3.67-3V67.85Z"/><path d="M51.69,36.42c-.35-.31-.67-.69-1.43-1.48l1-1Z"/><path class="cls-1" d="M34,74.22h4l.7-4.41.11-.68C37.27,70.82,35.66,72.5,34,74.22Zm24-2.43L56.29,63l-.09-.49-1.82-9.4-.13-.64a17.29,17.29,0,0,1-2.18,2.85c-2.86,3.05-5.77,6-8.65,9.06l-.15.15h6l.74,4.6h0l.08.49.73,4.61h7.65Z"/><path class="cls-1" d="M51.7,36.38l-.47-2.45-1.75-9q-4.89,5.15-9.8,10.28c-.5.52-1,1-1.39,1.53L35.41,51.47l-2,10.29L31,74v.13h3.58l4.84-5.09.74-4.62h3.67l.14-.15c2.88-3,5.79-6,8.65-9.06A17.29,17.29,0,0,0,54.8,52.4ZM41.19,57.89,45,34.82l3.76,23.07Z"/><path class="cls-1" d="M49.47,25q-4.89,5.15-9.8,10.28c-.5.52-1,1-1.39,1.53L41,23h8.11Z"/><path d="M67.26,6c-1.27,1.48-2.1,2.53-3,3.5Q56.86,17.26,49.47,25l-.38-2H41l-2.7,13.8c-4.65,5.38-5.63,9.8-2.88,14.72a27.06,27.06,0,0,0,4.65,5.81c-3,4.38-4.62,5.83-6.66,4.48a16.59,16.59,0,0,1-3.53-4,19.8,19.8,0,0,1-3.13-7,20.69,20.69,0,0,1,0-9.52,17.15,17.15,0,0,1,3.88-7.52c9.14-10.14,18.6-20,28.13-29.7C61.9.88,64.08,4.91,67.26,6Z"/><path d="M59.58,59.41c-.95,1-1.89,2.06-2.84,3.08q-3.08,3.33-6.19,6.62h0c-6.09,6.45-12.26,12.82-18.44,19.16-3.38,3.47-5.53-1-9.43-1.61L34.56,74.22c1.64-1.72,3.25-3.4,4.85-5.09l4.41-4.62.14-.15c2.88-3,5.79-6,8.65-9.06a17.86,17.86,0,0,0,2.18-2.85c3.29-5.41,2.24-11.27-3-16l-.05,0L51.21,34a22.48,22.48,0,0,0,2.3-2.5c1.61-2.18,3-1.53,4.6,0C65.71,38.34,66.62,51.72,59.58,59.41Z"/><path d="M192.29,41.21v6.37h8.93V41.21Zm-24,6.37h18.55V41.21H168.26Z"/><polygon class="cls-1" points="238.02 77.38 238.02 85.19 87.73 85.19 84.95 77.38 238.02 77.38"/><path d="M204.85,73.67l4.07-46.84h14.31l4,46.84h-8l-.6-7.56h-5.08L213,73.67Zm9.32-15H218l-1.84-23.82h-.38Z"/><path d="M229.43,73.67V26.83h8.15V73.67Z"/></g></g></svg>